<svg xmlns="http://www.w3.org/2000/svg" viewBox="0 0 1200 630" role="img" aria-label="Address Space Layout">
  <defs>
    <linearGradient id="bg" x1="0" y1="0" x2="1" y2="1">
      <stop offset="0%" stop-color="#0c1621"/>
      <stop offset="100%" stop-color="#050b10"/>
    </linearGradient>
  </defs>
  <rect width="1200" height="630" fill="url(#bg)"/>
  <g opacity="0.12" stroke="#8ad6ff" stroke-width="1">
    <path d="M0 78h1200M0 156h1200M0 234h1200M0 312h1200M0 390h1200M0 468h1200M0 546h1200"/>
    <path d="M96 0v630M192 0v630M288 0v630M384 0v630M480 0v630M576 0v630M672 0v630M768 0v630M864 0v630M960 0v630M1056 0v630"/>
  </g>
  <text x="86" y="104" fill="#8ad6ff" font-size="24" font-family="Source Code Pro, monospace">MM / ADDRESS SPACE</text>
  <text x="86" y="164" fill="#eff6ff" font-size="54" font-family="Roboto Slab, serif">Kernel Virtual Address Layout</text>
  <text x="86" y="208" fill="#9fb4c9" font-size="24" font-family="Roboto Slab, serif">higher-half kernel / direct map / vmalloc / fixmap</text>
  <rect x="780" y="118" width="260" height="64" rx="12" fill="none" stroke="#8ad6ff" stroke-width="2"/>
  <rect x="730" y="208" width="310" height="74" rx="12" fill="none" stroke="#8ecea6" stroke-width="2"/>
  <rect x="690" y="308" width="350" height="84" rx="12" fill="none" stroke="#ffbf69" stroke-width="2"/>
  <rect x="650" y="418" width="390" height="94" rx="12" fill="none" stroke="#ff7b72" stroke-width="2"/>
  <text x="810" y="158" fill="#8ad6ff" font-size="22" font-family="Source Code Pro, monospace">kernel text / data</text>
  <text x="754" y="252" fill="#8ecea6" font-size="22" font-family="Source Code Pro, monospace">direct map</text>
  <text x="714" y="360" fill="#ffbf69" font-size="22" font-family="Source Code Pro, monospace">vmalloc / ioremap</text>
  <text x="674" y="476" fill="#ff7b72" font-size="22" font-family="Source Code Pro, monospace">modules / fixmap / cpu entry area</text>
</svg>

