<svg xmlns="http://www.w3.org/2000/svg" viewBox="0 0 1200 630" role="img" aria-label="Hacking Field">
  <defs>
    <linearGradient id="bg" x1="0" y1="0" x2="1" y2="1">
      <stop offset="0%" stop-color="#0a141e"/>
      <stop offset="100%" stop-color="#050b10"/>
    </linearGradient>
  </defs>
  <rect width="1200" height="630" fill="url(#bg)"/>
  <g opacity="0.12" stroke="#8ad6ff" stroke-width="1">
    <path d="M0 70h1200M0 140h1200M0 210h1200M0 280h1200M0 350h1200M0 420h1200M0 490h1200M0 560h1200"/>
    <path d="M90 0v630M180 0v630M270 0v630M360 0v630M450 0v630M540 0v630M630 0v630M720 0v630M810 0v630M900 0v630M990 0v630M1080 0v630"/>
  </g>
  <rect x="82" y="88" width="1036" height="454" rx="28" fill="none" stroke="#193144" stroke-width="2"/>
  <rect x="118" y="132" width="520" height="210" rx="24" fill="rgba(10,18,28,0.65)" stroke="#8ad6ff" stroke-width="3"/>
  <text x="156" y="214" fill="#eff6ff" font-size="68" font-family="Roboto Slab, serif">Hacking Field</text>
  <text x="156" y="276" fill="#8ad6ff" font-size="28" font-family="Source Code Pro, monospace">OPERATING SYSTEMS / KERNEL / PERFORMANCE</text>
  <text x="156" y="320" fill="#9fb4c9" font-size="24" font-family="Roboto Slab, serif">记录源码路径、调度器、内存管理、I/O 与系统可观测性</text>
  <rect x="706" y="146" width="322" height="74" rx="12" fill="none" stroke="#8ad6ff" stroke-width="2"/>
  <rect x="706" y="246" width="322" height="74" rx="12" fill="none" stroke="#8ecea6" stroke-width="2"/>
  <rect x="706" y="346" width="322" height="74" rx="12" fill="none" stroke="#ffbf69" stroke-width="2"/>
  <text x="730" y="192" fill="#8ad6ff" font-size="24" font-family="Source Code Pro, monospace">MM / VMA / PAGE TABLE</text>
  <text x="730" y="292" fill="#8ecea6" font-size="24" font-family="Source Code Pro, monospace">SCHED / RUNQUEUE / LATENCY</text>
  <text x="730" y="392" fill="#ffbf69" font-size="24" font-family="Source Code Pro, monospace">VFS / CACHE / BLOCK LAYER</text>
</svg>
